<svg width="1280" height="640" viewBox="0 0 1280 640" xmlns="http://www.w3.org/2000/svg">
  <defs>
    <linearGradient id="bg" x1="80" y1="60" x2="1200" y2="600" gradientUnits="userSpaceOnUse">
      <stop offset="0" stop-color="#0A1220"/>
      <stop offset="0.55" stop-color="#10253B"/>
      <stop offset="1" stop-color="#17334C"/>
    </linearGradient>
    <linearGradient id="chip" x1="150" y1="150" x2="410" y2="410" gradientUnits="userSpaceOnUse">
      <stop offset="0" stop-color="#20D1B8"/>
      <stop offset="1" stop-color="#1085A1"/>
    </linearGradient>
    <linearGradient id="card" x1="835" y1="148" x2="1125" y2="472" gradientUnits="userSpaceOnUse">
      <stop offset="0" stop-color="#12283F"/>
      <stop offset="1" stop-color="#193851"/>
    </linearGradient>
  </defs>

  <rect x="0" y="0" width="1280" height="640" rx="32" fill="url(#bg)"/>
  <circle cx="1095" cy="110" r="170" fill="#1F4B65" opacity="0.18"/>
  <circle cx="175" cy="560" r="210" fill="#0C8E91" opacity="0.12"/>
  <rect x="96" y="116" width="1088" height="408" rx="28" fill="#0C1827" opacity="0.88" stroke="#27445F"/>

  <g opacity="0.55">
    <path d="M500 180H730" stroke="#254764" stroke-width="2" stroke-linecap="round"/>
    <path d="M500 220H710" stroke="#254764" stroke-width="2" stroke-linecap="round"/>
    <path d="M500 260H750" stroke="#254764" stroke-width="2" stroke-linecap="round"/>
    <path d="M500 300H700" stroke="#254764" stroke-width="2" stroke-linecap="round"/>
    <path d="M500 340H725" stroke="#254764" stroke-width="2" stroke-linecap="round"/>
  </g>

  <g transform="translate(150 170)">
    <rect x="0" y="0" width="260" height="260" rx="40" fill="url(#chip)"/>
    <rect x="48" y="48" width="164" height="164" rx="26" fill="#E8FBFF" opacity="0.16" stroke="#BFFFFB" stroke-width="2"/>
    <rect x="86" y="86" width="88" height="88" rx="18" fill="#09141F"/>
    <circle cx="130" cy="130" r="20" fill="#67E8FF"/>
    <path d="M40 88H0" stroke="#76FFF5" stroke-width="10" stroke-linecap="round"/>
    <path d="M40 130H0" stroke="#76FFF5" stroke-width="10" stroke-linecap="round"/>
    <path d="M40 172H0" stroke="#76FFF5" stroke-width="10" stroke-linecap="round"/>
    <path d="M260 88H220" stroke="#76FFF5" stroke-width="10" stroke-linecap="round"/>
    <path d="M260 130H220" stroke="#76FFF5" stroke-width="10" stroke-linecap="round"/>
    <path d="M260 172H220" stroke="#76FFF5" stroke-width="10" stroke-linecap="round"/>
    <path d="M88 40V0" stroke="#76FFF5" stroke-width="10" stroke-linecap="round"/>
    <path d="M130 40V0" stroke="#76FFF5" stroke-width="10" stroke-linecap="round"/>
    <path d="M172 40V0" stroke="#76FFF5" stroke-width="10" stroke-linecap="round"/>
    <path d="M88 260V220" stroke="#76FFF5" stroke-width="10" stroke-linecap="round"/>
    <path d="M130 260V220" stroke="#76FFF5" stroke-width="10" stroke-linecap="round"/>
    <path d="M172 260V220" stroke="#76FFF5" stroke-width="10" stroke-linecap="round"/>
  </g>

  <text x="476" y="190" fill="#7EEBFF" font-size="18" font-weight="700" letter-spacing="3" font-family="Arial, PingFang SC, sans-serif">
    OPENCLAW CHIP MULTI-AGENT TEAM
  </text>

  <text x="476" y="248" fill="#F5FBFF" font-size="58" font-weight="700" font-family="Arial, PingFang SC, sans-serif">
    <tspan x="476" dy="0">Team for Real</tspan>
    <tspan x="476" dy="68">Chip Collaboration</tspan>
  </text>

  <text x="476" y="372" fill="#D4E1EE" font-size="23" font-weight="500" font-family="Arial, PingFang SC, sans-serif">
    <tspan x="476" dy="0">角色化架构评审、实现判断、验证闭环</tspan>
    <tspan x="476" dy="34">与签核协作</tspan>
    <tspan x="476" dy="34">Architect / PM / RTL / DV / STA / PD / DFT / Analog / Layout</tspan>
  </text>

  <g transform="translate(476 444)">
    <rect x="0" y="0" width="170" height="44" rx="22" fill="#14354A" stroke="#316784"/>
    <text x="26" y="29" fill="#F2FAFF" font-size="19" font-weight="600" font-family="Arial, PingFang SC, sans-serif">Architect-led</text>

    <rect x="186" y="0" width="158" height="44" rx="22" fill="#14403D" stroke="#249388"/>
    <text x="216" y="29" fill="#F2FAFF" font-size="19" font-weight="600" font-family="Arial, PingFang SC, sans-serif">Chinese-first</text>

    <rect x="360" y="0" width="206" height="44" rx="22" fill="#2A2E48" stroke="#6970B7"/>
    <text x="389" y="29" fill="#F2FAFF" font-size="19" font-weight="600" font-family="Arial, PingFang SC, sans-serif">Reusable templates</text>
  </g>

  <g transform="translate(930 190)">
    <rect x="0" y="0" width="210" height="266" rx="24" fill="url(#card)" stroke="#2A516F"/>
    <text x="28" y="46" fill="#F6FBFF" font-size="24" font-weight="700" font-family="Arial, PingFang SC, sans-serif">Role Mesh</text>
    <text x="28" y="82" fill="#AEC6DA" font-size="15" font-weight="500" font-family="Arial, PingFang SC, sans-serif">
      <tspan x="28" dy="0">PM 定义边界，Architect</tspan>
      <tspan x="28" dy="22">做 gate，specialist</tspan>
      <tspan x="28" dy="22">约束实现与 signoff。</tspan>
    </text>

    <circle cx="46" cy="138" r="8" fill="#7EEBFF"/>
    <text x="64" y="143" fill="#F2FAFF" font-size="16" font-weight="600" font-family="Arial, PingFang SC, sans-serif">Chip PM</text>

    <circle cx="46" cy="170" r="8" fill="#37D1AB"/>
    <text x="64" y="175" fill="#F2FAFF" font-size="16" font-weight="600" font-family="Arial, PingFang SC, sans-serif">Architect</text>

    <circle cx="46" cy="202" r="8" fill="#FFB460"/>
    <text x="64" y="207" fill="#F2FAFF" font-size="16" font-weight="600" font-family="Arial, PingFang SC, sans-serif">RTL / DV / DFT</text>

    <circle cx="46" cy="234" r="8" fill="#C98CFF"/>
    <text x="64" y="239" fill="#F2FAFF" font-size="16" font-weight="600" font-family="Arial, PingFang SC, sans-serif">PD / STA</text>

    <circle cx="46" cy="266" r="8" fill="#FF8EA2"/>
    <text x="64" y="271" fill="#F2FAFF" font-size="16" font-weight="600" font-family="Arial, PingFang SC, sans-serif">Analog / Layout</text>
  </g>
</svg>
